<?xml version="1.0" encoding="utf-8"?>
<!-- Generator: Adobe Illustrator 22.1.0, SVG Export Plug-In . SVG Version: 6.00 Build 0)  -->
<svg version="1.1" id="Layer_1" xmlns="http://www.w3.org/2000/svg" xmlns:xlink="http://www.w3.org/1999/xlink" x="0px" y="0px"
	 viewBox="0 0 318.9 51" style="enable-background:new 0 0 318.9 51;" xml:space="preserve">
<style type="text/css">
	.st0{fill:#4C5454;}
	.st1{fill:#949898;}
	.st2{fill:#FF715B;}
</style>
<g>
	<path class="st0" d="M62.9,19.7c-1.3,0-2.3,0.5-3,1.6c-0.7,1-1.1,2.5-1.1,4.3c0,3.8,1.5,5.7,4.4,5.7c0.9,0,1.7-0.1,2.6-0.4
		c0.8-0.2,1.7-0.5,2.5-0.9v4.5c-1.7,0.7-3.5,1.1-5.6,1.1c-3,0-5.3-0.9-6.9-2.6c-1.6-1.7-2.4-4.3-2.4-7.5c0-2.1,0.4-3.9,1.2-5.4
		c0.8-1.6,1.9-2.8,3.3-3.6s3.2-1.3,5.1-1.3c2.1,0,4.2,0.5,6.2,1.4l-1.6,4.2c-0.7-0.3-1.5-0.6-2.2-0.9C64.5,19.8,63.7,19.7,62.9,19.7
		z"/>
	<path class="st0" d="M90,25.5c0,3.3-0.8,5.9-2.5,7.6c-1.6,1.7-4,2.6-7.2,2.6c-3.1,0-5.5-0.9-7.2-2.6s-2.5-4.3-2.5-7.6
		c0-3.3,0.8-5.8,2.5-7.6c1.7-1.7,4.1-2.6,7.2-2.6c3.2,0,5.6,0.9,7.2,2.6C89.2,19.6,90,22.1,90,25.5z M76.3,25.5c0,3.8,1.3,5.8,4,5.8
		c1.4,0,2.4-0.5,3-1.4c0.7-0.9,1-2.4,1-4.4c0-2-0.3-3.5-1-4.4s-1.7-1.4-3-1.4C77.7,19.7,76.3,21.6,76.3,25.5z"/>
	<path class="st0" d="M92.2,35.5V15.6h5.4v15.5h7.7v4.3H92.2z"/>
	<path class="st0" d="M117.1,35.5L113,21.1h-0.1c0.2,2.4,0.3,4.3,0.3,5.7v8.6h-4.8V15.6h7.2l4.1,14.1h0.1l4.1-14.1h7.2v19.9h-4.9
		v-8.7c0-0.5,0-1,0-1.5c0-0.6,0.1-1.9,0.2-4.1h-0.1l-4,14.3H117.1z"/>
	<path class="st0" d="M148.2,35.5l-1-3.7h-6.5l-1,3.7h-5.9l6.5-20h7.2l6.6,20H148.2z M146.1,27.3l-0.9-3.3c-0.2-0.7-0.4-1.7-0.7-2.8
		c-0.3-1.2-0.5-2-0.6-2.5c-0.1,0.5-0.2,1.2-0.5,2.3c-0.2,1.1-0.8,3.2-1.6,6.3H146.1z"/>
	<path class="st0" d="M162.3,28.2v7.2h-5.4V15.6h6.5c5.4,0,8.1,2,8.1,5.9c0,2.3-1.1,4.1-3.4,5.3l5.8,8.7h-6.1l-4.2-7.2H162.3z
		 M162.3,24.2h1c1.9,0,2.8-0.8,2.8-2.5c0-1.4-0.9-2.1-2.8-2.1h-1.1V24.2z"/>
	<path class="st1" d="M189.5,28.4h-8.1l-2.8,7h-1.5l8-20h0.9l7.8,20h-1.6L189.5,28.4z M181.9,27.2h7.1l-2.7-7.2
		c-0.2-0.6-0.5-1.3-0.8-2.3c-0.2,0.9-0.5,1.7-0.8,2.4L181.9,27.2z"/>
	<path class="st1" d="M207.9,16.5c-2.5,0-4.5,0.8-5.9,2.4s-2.1,3.8-2.1,6.6c0,2.8,0.7,5,2,6.6c1.4,1.6,3.3,2.4,5.8,2.4
		c1.7,0,3.2-0.2,4.6-0.6V35c-1.3,0.5-3,0.7-4.9,0.7c-2.8,0-5-0.9-6.6-2.7c-1.6-1.8-2.4-4.3-2.4-7.6c0-2,0.4-3.8,1.1-5.3
		c0.8-1.5,1.9-2.7,3.3-3.6c1.4-0.8,3.1-1.3,5-1.3c1.9,0,3.7,0.4,5.2,1.1l-0.6,1.3C211.1,16.9,209.5,16.5,207.9,16.5z"/>
	<path class="st1" d="M229.1,28.4H221l-2.8,7h-1.5l8-20h0.9l7.8,20h-1.6L229.1,28.4z M221.5,27.2h7.1l-2.7-7.2
		c-0.2-0.6-0.5-1.3-0.8-2.3c-0.2,0.9-0.5,1.7-0.8,2.4L221.5,27.2z"/>
	<path class="st1" d="M254.1,25.3c0,3.3-0.9,5.9-2.6,7.6s-4.3,2.6-7.7,2.6H239V15.6h5.4c3.2,0,5.6,0.8,7.2,2.5
		S254.1,22.1,254.1,25.3z M252.6,25.4c0-2.8-0.7-5-2.2-6.4c-1.4-1.4-3.6-2.2-6.4-2.2h-3.7v17.4h3.3
		C249.7,34.2,252.6,31.3,252.6,25.4z"/>
	<path class="st1" d="M272.4,35.5h-10.9V15.6h10.9v1.3h-9.5v7.5h8.9v1.3h-8.9v8.5h9.5V35.5z"/>
	<path class="st1" d="M288.4,35.5L281,17.1h-0.1c0.1,1.1,0.1,2.3,0.1,3.5v14.9h-1.3V15.6h2.1l7,17.5h0.1l7-17.5h2.1v19.9h-1.4V20.4
		c0-1.1,0.1-2.1,0.2-3.3h-0.1l-7.4,18.3H288.4z"/>
	<path class="st1" d="M311,26.5l5.8-10.9h1.5l-6.6,12.2v7.7h-1.4v-7.6l-6.7-12.3h1.6L311,26.5z"/>
</g>
<g id="OPt-2">
	<g id="prog2_pro3_Mobile-Portrait_opt2-Copy-2" transform="translate(-10.000000, -15.000000)">
		<g id="nav">
			<g id="Group-6">
				<g id="ic_home_1_" transform="translate(14.000000, 17.000000)">
					<g id="Group_1_" transform="translate(9.600000, 12.000000) scale(-1, 1) translate(-9.600000, -12.000000) ">
						<path id="Shape_5_" class="st2" d="M-14,12.7l1.9,1.5l3,2.3c0.4-2.1,1.7-3.8,3.2-4.9l-5.7-4.7l1.9-2.5
							c0.8-1.1,0.6-2.3-0.4-3.2l-4.5,5.9c-0.6,0.8-0.8,1.9-0.6,3C-15.3,11.2-14.6,12-14,12.7L-14,12.7z"/>
						<path id="Shape_4_" class="st2" d="M4.7,33.3c-6.6-3.4-12.3-4.5-13.8-2.1c-1.3,1.9,0.9,5.5,4.9,9.3L-8,46.7h-2.6
							c-1.3,0-2.1,1.1-2.1,2.3h3.4h4.5l1.5-2.3l2.1-3.6l0.9-1.5c-0.2-0.4-0.4-1.1-0.4-1.7c0-1.9,1.5-3.4,3.4-3.4h0.2L4.7,33.3
							L4.7,33.3z"/>
						<path id="Shape_3_" class="st2" d="M23.2,11.8c-0.4-1.7-1.7-3-3.6-3c-0.4,0-1.1,0-1.5,0.2C16.8,9.7,16,11,16,12.4v17.4
							c0,1.3-1.1,2.3-2.1,2.3c-0.8,0-1.7-0.6-1.9-1.3v-0.2l-2.1-5.1l4-13.8l0,0c0-0.2,0-0.2,0.2-0.4c1.1-5.5-1.5-11-6.4-13.4
							l-9.6,3.4c-1.1,0.4-1.7,1.7-1.3,2.8l2.3-0.9C0,2.9,1.1,3.5,1.5,4.4C2,5.4,1.3,6.5,0.5,6.7l-2.6,1.1C-1.7,8.8-0.4,9.5,0.7,9
							L3.2,8c0.2,1.1-0.4,2.1-1.5,2.5l-4.7,1.9c-2.1,0.8-3.6,3-3.8,5.3V18v0.2l0,0h-7.9v-3c0-0.8-1.1-1.5-1.7-1.9l-0.4-0.4v7.4
							c0,2.1,1.7,3.8,3.8,3.8h8.7c0.9,0,1.5,0,2.3,0.2l0,0c0,0,0,0,0.2,0l0,0c3.8,1.1,6.8,4.5,7.2,8.5v0.2c0,0.2,0,0.4,0,0.6
							c0,2.3-0.8,4.5-2.1,6.2c0,0.2-0.2,0.2-0.2,0.4c-0.2,0.4-0.4,0.9-0.4,1.5c0,1.3,1.1,2.6,2.3,2.6c0.4,0,0.8-0.2,1.3-0.4l4.9-3
							c0.6,0.4,1.1,1.1,1.1,1.9c0,0.6-0.2,1.1-0.6,1.5l-2.1,2.3H7.1l0,0H6.8c-1.3,0-2.1,1.1-2.1,2.3h4.5l0,0h2.8
							c0-2.1,1.7-3.8,3.8-3.8v-6.6c-1.7-0.4-3-1.9-3-3.8v-0.2c0.2,0,0.4,0,0.6,0c0.8,0,1.7-0.2,2.3-0.6c1.3-0.8,2.1-2.3,2.1-4V12.4
							c0-0.8,0.6-1.5,1.5-1.5c0.8,0,1.5,0.6,1.5,1.5c-1.1,0.6-1.7,1.9-1.7,3.2c0,2.1,1.7,3.8,3.8,3.8v-7
							C23.2,12.2,23.2,12,23.2,11.8L23.2,11.8z"/>
					</g>
				</g>
			</g>
		</g>
	</g>
</g>
</svg>
