<?xml version="1.0" encoding="utf-8"?>
<!-- Generator: Adobe Illustrator 22.1.0, SVG Export Plug-In . SVG Version: 6.00 Build 0)  -->
<svg version="1.1" id="Layer_1" xmlns="http://www.w3.org/2000/svg" xmlns:xlink="http://www.w3.org/1999/xlink" x="0px" y="0px"
	 viewBox="0 0 40 51" style="enable-background:new 0 0 40 51;" xml:space="preserve">
<style type="text/css">
	.st0{fill:#FF715B;}
</style>
<g id="OPt-2">
	<g id="prog2_pro3_Mobile-Portrait_opt2-Copy-2" transform="translate(-10.000000, -15.000000)">
		<g id="nav">
			<g id="Group-6">
				<g id="ic_home_1_" transform="translate(14.000000, 17.000000)">
					<g id="Group_1_" transform="translate(9.600000, 12.000000) scale(-1, 1) translate(-9.600000, -12.000000) ">
						<path id="Shape_5_" class="st0" d="M-14,12.7l1.9,1.5l3,2.3c0.4-2.1,1.7-3.8,3.2-4.9l-5.7-4.7l1.9-2.5
							c0.8-1.1,0.6-2.3-0.4-3.2l-4.5,5.9c-0.6,0.8-0.8,1.9-0.6,3C-15.3,11.2-14.6,12-14,12.7L-14,12.7z"/>
						<path id="Shape_4_" class="st0" d="M4.7,33.3c-6.6-3.4-12.3-4.5-13.8-2.1c-1.3,1.9,0.9,5.5,4.9,9.3L-8,46.7h-2.6
							c-1.3,0-2.1,1.1-2.1,2.3h3.4h4.5l1.5-2.3l2.1-3.6l0.9-1.5c-0.2-0.4-0.4-1.1-0.4-1.7c0-1.9,1.5-3.4,3.4-3.4h0.2L4.7,33.3
							L4.7,33.3z"/>
						<path id="Shape_3_" class="st0" d="M23.2,11.8c-0.4-1.7-1.7-3-3.6-3c-0.4,0-1.1,0-1.5,0.2c-1.3,0.7-2.1,2-2.1,3.4v17.4
							c0,1.3-1.1,2.3-2.1,2.3c-0.8,0-1.7-0.6-1.9-1.3v-0.2l-2.1-5.1l4-13.8l0,0c0-0.2,0-0.2,0.2-0.4c1.1-5.5-1.5-11-6.4-13.4
							l-9.6,3.4C-3,1.7-3.6,3-3.2,4.1l2.3-0.9c0.9-0.3,2,0.3,2.4,1.2c0.5,1-0.2,2.1-1,2.3l-2.6,1.1c0.4,1,1.7,1.7,2.8,1.2l2.5-1
							c0.2,1.1-0.4,2.1-1.5,2.5L-3,12.4c-2.1,0.8-3.6,3-3.8,5.3V18v0.2l0,0h-7.9v-3c0-0.8-1.1-1.5-1.7-1.9l-0.4-0.4v7.4
							c0,2.1,1.7,3.8,3.8,3.8h8.7c0.9,0,1.5,0,2.3,0.2l0,0c0,0,0,0,0.2,0l0,0C2,25.4,5,28.8,5.4,32.8V33c0,0.2,0,0.4,0,0.6
							c0,2.3-0.8,4.5-2.1,6.2c0,0.2-0.2,0.2-0.2,0.4c-0.2,0.4-0.4,0.9-0.4,1.5c0,1.3,1.1,2.6,2.3,2.6c0.4,0,0.8-0.2,1.3-0.4l4.9-3
							c0.6,0.4,1.1,1.1,1.1,1.9c0,0.6-0.2,1.1-0.6,1.5l-2.1,2.3H7.1l0,0H6.8c-1.3,0-2.1,1.1-2.1,2.3h4.5l0,0H12
							c0-2.1,1.7-3.8,3.8-3.8v-6.6c-1.7-0.4-3-1.9-3-3.8v-0.2c0.2,0,0.4,0,0.6,0c0.8,0,1.7-0.2,2.3-0.6c1.3-0.8,2.1-2.3,2.1-4V12.4
							c0-0.8,0.6-1.5,1.5-1.5c0.8,0,1.5,0.6,1.5,1.5c-1.1,0.6-1.7,1.9-1.7,3.2c0,2.1,1.7,3.8,3.8,3.8v-7
							C23.2,12.2,23.2,12,23.2,11.8L23.2,11.8z"/>
					</g>
				</g>
			</g>
		</g>
	</g>
</g>
</svg>
